<svg width="30" height="30" viewBox="0 0 30 30" fill="none" xmlns="http://www.w3.org/2000/svg">
<path d="M29.8152 6.25072C29.634 6.00238 29.3448 5.85541 29.0375 5.85541H7.37979C7.33782 5.85541 7.29593 5.85796 7.25558 5.8634L6.36426 3.29404C6.27188 3.02831 6.06845 2.81649 5.80702 2.71357L1.31497 0.948924C0.819897 0.755098 0.261244 0.99827 0.0668137 1.49274C-0.127281 1.98748 0.115824 2.54647 0.610629 2.7409L4.69045 4.34361L9.68422 18.7379C9.46381 18.8147 9.27703 18.9838 9.19197 19.2204L7.7481 23.2311C7.65962 23.477 7.69607 23.7503 7.84666 23.964C7.99705 24.1777 8.24163 24.3049 8.5028 24.3049H9.24427C8.78477 24.8162 8.5028 25.4896 8.5028 26.2301C8.5028 27.8225 9.79842 29.1178 11.3905 29.1178C12.9826 29.1178 14.2782 27.8225 14.2782 26.2301C14.2782 25.4896 13.9963 24.8162 13.5368 24.3049H19.8327C19.373 24.8162 19.0909 25.4896 19.0909 26.2301C19.0909 27.8225 20.3863 29.1178 21.9787 29.1178C23.5711 29.1178 24.8665 27.8225 24.8665 26.2301C24.8665 25.4896 24.5845 24.8162 24.1251 24.3049H25.0269C25.47 24.3049 25.829 23.9458 25.829 23.5028C25.829 23.0597 25.4699 22.7007 25.0269 22.7007H9.64414L10.5383 20.2168C10.6538 20.2654 10.7786 20.2942 10.9091 20.2942H25.0267C25.4453 20.2942 25.8157 20.0238 25.9432 19.6256L29.9539 7.11196C30.048 6.81897 29.9963 6.49906 29.8152 6.25072ZM11.3905 27.5135C10.6827 27.5135 10.1071 26.9379 10.1071 26.2301C10.1071 25.5223 10.6827 24.9466 11.3905 24.9466C12.0984 24.9466 12.6739 25.5223 12.6739 26.2301C12.6739 26.9379 12.0984 27.5135 11.3905 27.5135ZM21.9787 27.5135C21.2708 27.5135 20.6952 26.9379 20.6952 26.2301C20.6952 25.5223 21.2708 24.9466 21.9787 24.9466C22.6864 24.9466 23.2621 25.5223 23.2621 26.2301C23.2621 26.9379 22.6864 27.5135 21.9787 27.5135ZM27.0243 9.94638H22.1124V7.78059H27.7183L27.0243 9.94638ZM25.6099 14.3581H22.1124V11.8715H26.407L25.6099 14.3581ZM15.7486 14.3581V11.8715H20.1872V14.3581H15.7486ZM20.1872 16.2834V18.369H15.7486V16.2834H20.1872ZM9.33987 11.8715H13.8236V14.3581H10.2027L9.33987 11.8715ZM15.7486 9.94638V7.78059H20.1872V9.94638H15.7486ZM13.8235 7.78059V9.94638H8.67178L7.92045 7.78059H13.8235ZM10.8707 16.2834H13.8235V18.369H11.5942L10.8707 16.2834ZM22.1124 18.3691V16.2835H24.9932L24.3249 18.3691H22.1124Z" fill="#404040"/>
</svg>
