<svg width="10" height="10" viewBox="0 0 10 10" fill="none" xmlns="http://www.w3.org/2000/svg">
<path d="M9.60085 3.05361C9.07363 1.82445 8.17771 0.930508 6.93828 0.401897C6.31881 0.137698 5.6698 0.00274658 4.99178 0.00274658C4.31387 0.00274658 3.66966 0.136423 3.05087 0.401897C1.8217 0.929103 0.921814 1.82247 0.39366 3.05361C0.129003 3.67041 0 4.3166 0 4.99451C0 5.67255 0.129003 6.3241 0.39366 6.94103C0.921814 8.17217 1.82181 9.0709 3.05087 9.59824C3.66977 9.86371 4.31386 9.99726 4.99178 9.99726C5.66971 9.99726 6.31881 9.86231 6.93819 9.59824C8.17762 9.06961 9.07353 8.17008 9.60087 6.94103C9.86632 6.32213 10 5.67255 10 4.99451C10 4.3166 9.86644 3.6725 9.60085 3.05361ZM8.80268 7.20348C8.41018 7.8766 7.87247 8.41061 7.19525 8.80543C6.52212 9.19793 5.78459 9.39587 4.9919 9.39587C4.39598 9.39587 3.82735 9.2811 3.28601 9.04595C2.74469 8.81092 2.2773 8.50193 1.88632 8.11106C1.49534 7.72008 1.18415 7.24814 0.951454 6.70588C0.719444 6.16561 0.60701 5.59056 0.60701 4.99453C0.60701 4.20172 0.801797 3.46793 1.19209 2.79667C1.58377 2.12296 2.1216 1.58838 2.79404 1.19471C3.46636 0.801047 4.1991 0.604152 4.99178 0.604152C5.78459 0.604152 6.52199 0.802207 7.19513 1.19471C7.87235 1.58954 8.40891 2.1241 8.80257 2.79665C9.19623 3.46909 9.39301 4.20172 9.39301 4.99451C9.39301 5.78734 9.19752 6.52613 8.80268 7.20348Z" fill="#E72B2B"/>
<path d="M5.3089 4.95079V2.11862C5.3089 1.94914 5.16124 1.81244 4.99174 1.81244C4.83323 1.81244 4.69104 1.94914 4.69104 2.11862V4.99451C4.69104 5 4.702 5.02193 4.702 5.03827C4.69104 5.1367 4.71846 5.21871 4.78401 5.28438L6.41887 6.91912C6.52826 7.02852 6.73052 7.02852 6.83983 6.91912C6.96555 6.79339 6.95728 6.61095 6.83983 6.49267L5.3089 4.95079Z" fill="#E72B2B"/>
</svg>
