<svg width="14" height="10" viewBox="0 0 14 10" fill="none" xmlns="http://www.w3.org/2000/svg">
<path d="M13.9897 1.01601C13.9897 1.00001 14.0007 0.984442 14 0.968628L9.72766 5.08524L13.9949 9.07034C13.9974 9.04188 13.9897 9.01317 13.9897 8.98409V1.01601Z" fill="#E72B2B"/>
<path d="M9.07546 5.71869L7.33137 7.39672C7.24311 7.48163 7.12913 7.52421 7.01508 7.52421C6.90341 7.52421 6.79174 7.48345 6.70409 7.40177L4.96475 5.78097L0.669678 9.92094C0.774114 9.95847 0.886213 9.9876 1.0036 9.9876H13.0266C13.2009 9.9876 13.3644 9.9345 13.5066 9.85531L9.07546 5.71869Z" fill="#E72B2B"/>
<path d="M7.01004 6.43985L13.5302 0.159038C13.3826 0.0712683 13.2107 0.0123901 13.0266 0.0123901H1.00355C0.763722 0.0123901 0.543963 0.105513 0.372803 0.247538L7.01004 6.43985Z" fill="#E72B2B"/>
<path d="M0 1.16895V8.98393C0 9.07365 0.0206195 9.16014 0.043003 9.2428L4.28479 5.15807L0 1.16895Z" fill="#E72B2B"/>
</svg>
