<svg width="65" height="64" viewBox="0 0 65 64" fill="none" xmlns="http://www.w3.org/2000/svg">
<path d="M12.0937 39.8712C12.5541 39.8712 13.0071 39.8316 13.4552 39.7665L13.2767 61.6265L8.9392 63.7952H16.2344H16.6287H20.5477L16.6287 61.6774V60.6405V50.9638L59.6365 40.8789L59.5133 53.0819L57.2458 54.5284H64.9999L62.1101 52.9511V22.3894L60.3355 20.2207L57.2457 20.8952V7.99608C57.2457 7.99608 53.1279 -2.57265 40.289 1.29225L26.2898 11.2154C26.2898 11.2154 37.1341 41.1205 57.2457 24.1642V23.6509L58.8306 23.2042L59.8088 23.9669L59.6701 37.5745L16.6287 47.1883V38.733C20.27 36.8418 23.0277 32.7439 23.8935 27.7285L24.1012 27.681C25.4737 32.8984 29.1966 37.7612 37.7258 38.1633C54.4854 38.9519 57.2459 29.3692 57.2459 29.3692C34.5713 43.7719 24.5155 15.2866 24.5155 15.2866C24.1395 16.1507 23.7639 17.6482 23.5635 19.4705C21.9662 13.3043 17.4389 8.85111 12.0936 8.85111C5.41463 8.85102 0 15.795 0 24.3611C8.16724e-05 32.9274 5.41471 39.8712 12.0937 39.8712ZM40.3321 3.70027C41.3069 2.12351 45.5732 1.96016 49.0443 3.34859C52.4104 4.55335 54.9473 7.14636 54.3121 8.77981C53.6769 10.4133 50.2693 12.0059 45.2873 9.80071C39.7744 7.36058 39.3573 5.27704 40.3321 3.70027ZM12.0937 12.4156C17.2386 12.4156 21.4071 17.7635 21.4071 24.3611C21.4071 24.5983 21.3917 24.8297 21.3793 25.0639C21.3268 26.2344 21.1435 27.3587 20.8464 28.4173C20.3626 30.1268 19.5634 31.6229 18.5712 32.8687L15.76 27.8857C15.9201 27.4865 16.059 27.0628 16.1633 26.6132C16.3267 25.9063 16.4317 25.1561 16.4317 24.3611C16.4317 20.6583 14.4892 17.6574 12.0937 17.6574C11.462 17.6574 10.8647 17.8777 10.3236 18.2519L7.79456 13.7711C9.08058 12.91 10.5409 12.4156 12.0937 12.4156ZM5.43766 16.0136L8.3198 21.1204C7.97163 22.0846 7.75618 23.1779 7.75618 24.361C7.75618 28.064 9.69851 31.0649 12.0937 31.0649C12.5989 31.0649 13.0764 30.9048 13.5294 30.6598C13.5727 30.6369 13.6077 30.5935 13.6509 30.5692L16.1911 35.0714C15.3501 35.5999 14.4443 35.9743 13.4831 36.1591C13.03 36.2466 12.5679 36.3067 12.0937 36.3067C6.94868 36.3067 2.7807 30.9587 2.7807 24.3609C2.7807 21.1107 3.79401 18.1672 5.43766 16.0136Z" fill="#E72B2B"/>
</svg>
