<svg width="62" height="62" viewBox="0 0 62 62" fill="none" xmlns="http://www.w3.org/2000/svg">
<g clip-path="url(#clip0)">
<path d="M54.8255 21.9308L50.1107 17.0576L51.0604 10.3454C51.2057 9.31875 50.5107 8.36184 49.4892 8.18297L42.8114 7.01233L39.6326 1.02152C39.1467 0.10587 38.0214 -0.25957 37.0907 0.195821L31.0007 3.17264L24.9091 0.195821C23.9776 -0.25957 22.8534 0.106127 22.3672 1.02203L19.1897 7.01233L12.5111 8.18297C11.4899 8.36184 10.7946 9.31875 10.9399 10.3454L11.8894 17.0576L7.17454 21.9308C6.45366 22.676 6.45366 23.8584 7.1748 24.6037L11.8894 29.4764L10.9399 36.1922C10.7949 37.2185 11.4899 38.1754 12.5111 38.3543L17.8561 39.2912V60.078C17.8561 60.7441 18.201 61.3627 18.7677 61.7128C19.0762 61.9037 19.4268 62 19.7781 62C20.0718 62 20.3663 61.9329 20.6377 61.7971L31.0009 56.6174L41.3627 61.7971C41.9582 62.0949 42.666 62.0631 43.2327 61.7128C43.7993 61.3624 44.1442 60.7438 44.1442 60.0778V39.2915L49.4895 38.3541C50.5107 38.1749 51.2057 37.2183 51.0607 36.1917L50.1109 29.4759L54.8255 24.6034C55.5461 23.8587 55.5461 22.676 54.8255 21.9308ZM31.8602 52.7492C31.3195 52.4789 30.6826 52.4786 30.1414 52.7492L21.7001 56.9684V44.2562L22.3675 45.5142C22.8534 46.4304 23.9789 46.7956 24.9097 46.3399L31.0009 43.3611L37.0904 46.3399C37.362 46.4727 37.6501 46.5357 37.9338 46.5357C38.6231 46.5357 39.2884 46.1631 39.6328 45.5145L40.3002 44.2575V56.9684L31.8602 52.7492ZM46.6946 27.4785C46.2823 27.9047 46.0898 28.4972 46.1728 29.0843L46.9937 34.889L41.2222 35.9011C40.6384 36.0033 40.1344 36.3695 39.8563 36.8931L37.1088 42.0697L31.8453 39.495C31.5788 39.3648 31.2897 39.2994 31.0007 39.2994C30.7116 39.2994 30.4225 39.3645 30.1563 39.495L24.8915 42.0697L22.145 36.8933C21.8672 36.3695 21.3631 36.0033 20.7791 35.9011L15.0064 34.889L15.827 29.084C15.91 28.4972 15.7175 27.9044 15.3052 27.4785L11.2303 23.267L15.3055 19.0549C15.7175 18.6288 15.91 18.0363 15.827 17.4494L15.0064 11.6482L20.7791 10.6362C21.3631 10.534 21.8672 10.1675 22.1453 9.6437L24.8917 4.46578L30.1568 7.03872C30.6893 7.29909 31.3123 7.29909 31.8448 7.03872L37.1083 4.46578L39.8563 9.64396C40.1341 10.1675 40.6382 10.5337 41.2222 10.6362L46.9937 11.648L46.1728 17.4492C46.0898 18.0363 46.2823 18.6288 46.6943 19.0549L50.7695 23.267L46.6946 27.4785Z" fill="#E72B2B"/>
<path d="M31.0007 10.1245C23.7526 10.1245 17.8558 16.0202 17.8558 23.2672C17.8558 30.5158 23.7526 36.4128 31.0007 36.4128C38.2477 36.4128 44.1437 30.5158 44.1437 23.2672C44.1437 16.0202 38.2477 10.1245 31.0007 10.1245ZM31.0007 32.5688C25.8722 32.5688 21.6999 28.3962 21.6999 23.2672C21.6999 18.1398 25.8722 13.9685 31.0007 13.9685C36.1281 13.9685 40.2996 18.1398 40.2996 23.2672C40.2996 28.3962 36.1281 32.5688 31.0007 32.5688Z" fill="#E72B2B"/>
<path d="M34.9187 18.3912L29.2411 24.0676L27.0805 21.9095C26.3296 21.1592 25.1126 21.1599 24.3622 21.9111C23.6121 22.6622 23.6129 23.879 24.364 24.6291L27.8834 28.1446C28.2586 28.5195 28.7501 28.7068 29.2416 28.7068C29.7334 28.7068 30.2254 28.5192 30.6006 28.144L37.6365 21.1097C38.3874 20.3593 38.3874 19.1423 37.6367 18.3915C36.8864 17.6408 35.6694 17.6406 34.9187 18.3912Z" fill="#E72B2B"/>
</g>
<defs>
<clipPath id="clip0">
<rect width="62" height="62" fill="white"/>
</clipPath>
</defs>
</svg>
