<svg width="67" height="67" viewBox="0 0 67 67" fill="none" xmlns="http://www.w3.org/2000/svg">
<path d="M64.949 48.5408H62.898V27.3469C62.898 26.2142 61.9796 25.2959 60.8469 25.2959H49.2245V4.10205C49.2245 2.96934 48.3062 2.05103 47.1735 2.05103H19.8265C18.6938 2.05103 17.7755 2.96934 17.7755 4.10205V25.2959H6.15306C5.02035 25.2959 4.10204 26.2142 4.10204 27.3469V48.5408H2.05102C0.91831 48.5408 0 49.4591 0 50.5918V62.898C0 64.0307 0.91831 64.949 2.05102 64.949H10.2551C11.3878 64.949 12.3061 64.0307 12.3061 62.898V60.8469H27.3469V62.898C27.3469 64.0307 28.2652 64.949 29.398 64.949H37.602C38.7348 64.949 39.6531 64.0307 39.6531 62.898V60.8469H54.6939V62.898C54.6939 64.0307 55.6122 64.949 56.7449 64.949H64.949C66.0817 64.949 67 64.0307 67 62.898V50.5918C67 49.4591 66.0817 48.5408 64.949 48.5408ZM58.7959 29.398V48.5408H35.551V29.398H58.7959ZM21.8776 6.15307H45.1224V25.2959H21.8776V6.15307ZM8.20408 29.398H31.449V48.5408H8.20408V29.398ZM62.898 60.8469H58.7959V58.7959C58.7959 57.6632 57.8776 56.7449 56.7449 56.7449H37.602C36.4693 56.7449 35.551 57.6632 35.551 58.7959V60.8469H31.449V58.7959C31.449 57.6632 30.5307 56.7449 29.398 56.7449H10.2551C9.12239 56.7449 8.20408 57.6632 8.20408 58.7959V60.8469H4.10204V52.6429H62.898V60.8469Z" fill="#E72B2B"/>
</svg>
