<svg width="67" height="65" viewBox="0 0 67 65" fill="none" xmlns="http://www.w3.org/2000/svg">
<path d="M15.6571 12.5861L42.3669 5.2955L40.9524 2.43643C40.0269 0.578036 37.7698 -0.189398 35.9114 0.736037L12.0005 12.5861H15.6571Z" fill="#E72B2B"/>
<path d="M50.6582 5.50513C50.3272 5.50513 49.9961 5.55027 49.665 5.64056L43.3902 7.356L24.2268 12.5851H45.9783H55.4584L54.2847 8.28143C53.8332 6.60361 52.3134 5.50513 50.6582 5.50513Z" fill="#E72B2B"/>
<path d="M59.3783 15.2184H58.5206H57.3544H56.1882H47.2875H14.5812H10.2926H6.68119H6.01157H3.76946C2.58069 15.2184 1.51982 15.7677 0.827625 16.6329C0.511623 17.0317 0.270859 17.4907 0.13543 17.9948C0.052667 18.3108 0 18.6418 0 18.9804V19.4318V23.7204V60.8958C0 62.9725 1.68535 64.6577 3.76193 64.6577H59.3708C61.4475 64.6577 63.1327 62.9725 63.1327 60.8958V50.4H40.8094C37.2807 50.4 34.4142 47.5334 34.4142 44.0047V40.5588V39.3926V38.2264V35.6382C34.4142 33.9077 35.1063 32.3353 36.2274 31.1842C37.2206 30.1608 38.5523 29.4686 40.042 29.2956C40.2903 29.2656 40.5461 29.2504 40.8019 29.2504H60.0028H61.169H62.3352H63.1327V18.9804C63.1403 16.9038 61.4549 15.2184 59.3783 15.2184Z" fill="#E72B2B"/>
<path d="M65.7736 32.8469C65.3974 32.5008 64.9535 32.2374 64.4569 32.0644C64.0731 31.9366 63.6669 31.8613 63.2381 31.8613H63.1402H63.065H61.8988H57.693H40.8094C38.7328 31.8613 37.0475 33.5466 37.0475 35.6233V37.4966V38.6628V39.829V43.9973C37.0475 46.0738 38.7328 47.7592 40.8094 47.7592H63.1402H63.2381C63.6669 47.7592 64.0732 47.6839 64.4569 47.556C64.9535 47.3905 65.3974 47.1197 65.7736 46.7736C66.526 46.0889 67 45.0957 67 43.9973V35.6233C67 34.5247 66.526 33.5315 65.7736 32.8469ZM48.6643 40.5588C48.6643 41.5971 47.8217 42.4398 46.7834 42.4398H45.5344C44.4961 42.4398 43.6534 41.5971 43.6534 40.5588V39.3099C43.6534 38.708 43.9318 38.1737 44.3757 37.8351C44.6993 37.5868 45.0981 37.4289 45.5344 37.4289H45.8504H46.7834C47.8217 37.4289 48.6643 38.2715 48.6643 39.3099V40.5588Z" fill="#E72B2B"/>
</svg>
