<svg width="10" height="10" viewBox="0 0 10 10" fill="none" xmlns="http://www.w3.org/2000/svg">
<path d="M9.79022 8.87529L7.1795 6.26456C7.6457 5.61188 7.92542 4.81932 7.92542 3.98016C7.92542 1.789 6.15385 0.0174561 3.96272 0.0174561C1.77159 0.0174561 0 1.78902 0 3.98016C0 6.1713 1.77156 7.94286 3.9627 7.94286C4.80186 7.94286 5.59441 7.66314 6.24709 7.19694L8.85782 9.80767C9.09091 10.0408 9.5105 10.0408 9.79022 9.80767C10.0699 9.52797 10.0699 9.15499 9.79022 8.87529ZM3.9627 7.01048C2.28437 7.01048 0.932402 5.65849 0.932402 3.98018C0.932402 2.30186 2.28437 0.949884 3.9627 0.949884C5.64102 0.949884 6.99299 2.30186 6.99299 3.98018C6.99302 5.65849 5.64102 7.01048 3.9627 7.01048Z" fill="#E72B2B"/>
</svg>
