<svg width="100" height="62" viewBox="0 0 100 62" fill="none" xmlns="http://www.w3.org/2000/svg">
<path d="M31.2501 44.0734C26.3969 44.0734 22.4638 48.005 22.4638 52.8587C22.4638 57.7126 26.3969 61.6442 31.2501 61.6442C36.105 61.6442 40.0371 57.7126 40.0371 52.8587C40.0371 48.005 36.105 44.0734 31.2501 44.0734ZM31.2501 56.6782C29.1403 56.6782 27.4308 54.9684 27.4308 52.8587C27.4308 50.748 29.1403 49.0392 31.2501 49.0392C33.36 49.0392 35.0708 50.748 35.0708 52.8587C35.0708 54.9684 33.36 56.6782 31.2501 56.6782Z" fill="#E72B2B"/>
<path d="M77.5814 44.0734C72.7282 44.0734 68.7954 48.005 68.7954 52.8587C68.7954 57.7126 72.7282 61.6442 77.5814 61.6442C82.4366 61.6442 86.3684 57.7126 86.3684 52.8587C86.3684 48.005 82.4366 44.0734 77.5814 44.0734ZM77.5814 56.6782C75.4717 56.6782 73.7624 54.9684 73.7624 52.8587C73.7624 50.748 75.4717 49.0392 77.5814 49.0392C79.6916 49.0392 81.4024 50.748 81.4024 52.8587C81.4024 54.9684 79.6916 56.6782 77.5814 56.6782Z" fill="#E72B2B"/>
<path d="M41.1347 17.078C41.1347 18.3091 40.1273 19.3163 38.8964 19.3163H8.00892C6.7778 19.3163 5.77087 18.3091 5.77087 17.078V15.735C5.77087 14.5041 6.77804 13.4969 8.00892 13.4969H38.8964C40.1275 13.4969 41.1347 14.5041 41.1347 15.735V17.078Z" fill="#E72B2B"/>
<path d="M94.7982 30.1825C91.5766 29.3449 89.7331 28.8184 88.468 26.3753L84.238 17.8108C82.9725 15.3677 79.6857 13.3686 76.9351 13.3686H71.1495C71.1495 13.3686 70.3712 13.3848 70.3712 12.6016C70.3712 10.8058 70.3712 5.41867 70.3712 5.41867C70.3712 2.63414 68.7954 0.355774 65.4435 0.355774H18.2911C13.4922 0.355774 11.2138 2.63438 11.2138 5.41867V9.92009C11.2138 9.92009 11.2138 11.2589 12.5096 11.2589C19.1063 11.2589 38.8964 11.2589 38.8964 11.2589C41.3648 11.2589 43.373 13.2668 43.373 15.7352V17.0782C43.373 19.5466 41.3648 21.5545 38.8964 21.5545H12.5096C12.5096 21.5545 11.2138 21.4469 11.2138 22.8457C11.2138 23.5404 11.2138 24.0067 11.2138 24.3937C11.2138 25.6248 12.9012 25.624 12.9012 25.624H30.6635C33.1319 25.624 35.1401 27.6322 35.1401 30.1004V31.4434C35.1401 33.9118 33.1319 35.9197 30.6635 35.9197H13.1815C13.1815 35.9197 11.2138 35.8833 11.2138 37.45C11.2138 40.1694 11.2138 48.3271 11.2138 48.3271C11.2138 51.1113 13.4922 53.39 16.2767 53.39C16.2767 53.39 18.3742 53.39 19.0733 53.39C19.7076 53.39 19.801 53.0367 19.801 52.8592C19.801 46.5465 24.9374 41.4113 31.2503 41.4113C37.5638 41.4113 42.6999 46.547 42.6999 52.8592C42.6999 53.0374 42.6493 53.39 43.1343 53.39C48.6778 53.39 65.7031 53.39 65.7031 53.39C66.1505 53.39 66.1323 53.0129 66.1323 52.8592C66.1323 46.5465 71.2685 41.4113 77.5816 41.4113C83.8948 41.4113 89.031 46.547 89.031 52.8592C89.031 53.0374 89.0266 53.39 89.3066 53.39C91.8485 53.39 94.9966 53.39 94.9966 53.39C97.7487 53.39 99.9997 51.1389 99.9997 48.387V38.8822C100 30.8777 97.4726 30.8777 94.7982 30.1825ZM85.2779 29.7373C85.2779 29.7373 74.6533 29.7373 71.0374 29.7373C70.4491 29.7373 70.3709 29.1645 70.3709 29.1645V17.3019C70.3709 17.3019 70.3377 16.8464 71.0932 16.8464C72.1092 16.8464 75.1565 16.8464 75.1565 16.8464C77.6048 16.8464 80.5292 18.6252 81.6548 20.7991L85.419 28.4199C85.5776 28.7267 85.7469 28.9991 85.9284 29.2432C86.0621 29.4221 85.8379 29.7373 85.2779 29.7373Z" fill="#E72B2B"/>
<path d="M32.9016 31.4433C32.9016 32.6744 31.8944 33.6816 30.6635 33.6816H2.23805C1.00693 33.6816 0 32.6744 0 31.4433V30.1003C0 28.8695 1.00717 27.8623 2.23805 27.8623H30.6635C31.8946 27.8623 32.9016 28.8695 32.9016 30.1003V31.4433Z" fill="#E72B2B"/>
</svg>
